<svg width="17" height="17" viewBox="0 0 17 17" fill="none" xmlns="http://www.w3.org/2000/svg">
<path d="M0.855469 5.99471H16.1362M4.25119 0.901123V2.59899M12.7405 0.901123V2.59899M3.40226 9.39043H5.10012M3.40226 12.7862H5.10012M7.64692 9.39043H9.34478M7.64692 12.7862H9.34478M11.8916 9.39043H13.5894M11.8916 12.7862H13.5894M3.57205 16.1819H13.4196C14.3705 16.1819 14.846 16.1819 15.2092 15.9968C15.5287 15.8341 15.7884 15.5743 15.9512 15.2549C16.1362 14.8917 16.1362 14.4162 16.1362 13.4653V5.31557C16.1362 4.36467 16.1362 3.88923 15.9512 3.52604C15.7884 3.20656 15.5287 2.94682 15.2092 2.78404C14.846 2.59899 14.3705 2.59899 13.4196 2.59899H3.57205C2.62116 2.59899 2.14571 2.59899 1.78252 2.78404C1.46304 2.94682 1.2033 3.20656 1.04053 3.52604C0.855469 3.88923 0.855469 4.36467 0.855469 5.31557V13.4653C0.855469 14.4162 0.855469 14.8917 1.04053 15.2549C1.2033 15.5743 1.46304 15.8341 1.78252 15.9968C2.14571 16.1819 2.62115 16.1819 3.57205 16.1819Z" stroke="black" stroke-width="1.2" stroke-linecap="round" stroke-linejoin="round"/>
</svg>
