<svg width="22" height="22" viewBox="0 0 22 22" fill="none" xmlns="http://www.w3.org/2000/svg">
<path d="M7.23828 16.374C7.96316 16.374 8.55078 16.9616 8.55078 17.6865C8.55078 18.4113 7.96316 18.999 7.23828 18.999C6.51341 18.999 5.92578 18.4113 5.92578 17.6865C5.92578 16.9616 6.51341 16.374 7.23828 16.374Z" stroke="white"/>
<path d="M15.1133 16.374C15.8381 16.374 16.4258 16.9616 16.4258 17.6865C16.4258 18.4114 15.8381 18.999 15.1133 18.999C14.3884 18.999 13.8008 18.4114 13.8008 17.6865C13.8008 16.9616 14.3884 16.374 15.1133 16.374Z" stroke="white"/>
<path d="M2.64362 2.62986C2.3017 2.50964 1.92707 2.68938 1.80686 3.03129C1.68664 3.37321 1.86638 3.74785 2.20829 3.86805L2.64362 2.62986ZM18.7515 9.27136L19.3942 9.40388L19.3951 9.39986L18.7515 9.27136ZM5.67053 9.16396V6.78252H4.35803V9.16396H5.67053ZM2.87218 2.71021L2.64362 2.62986L2.20829 3.86805L2.43685 3.94841L2.87218 2.71021ZM10.2463 14.8427H14.8863V13.5302H10.2463V14.8427ZM5.67053 6.78252C5.67053 6.16376 5.67142 5.64742 5.626 5.22783C5.57898 4.7935 5.47713 4.39737 5.23039 4.03631L4.14674 4.77682C4.22572 4.8924 4.28671 5.05114 4.32112 5.36907C4.35714 5.70176 4.35803 6.13506 4.35803 6.78252H5.67053ZM2.43685 3.94841C3.02101 4.15379 3.40492 4.2899 3.68741 4.42851C3.95273 4.55869 4.06969 4.66407 4.14674 4.77682L5.23039 4.03631C4.98174 3.67243 4.65112 3.43938 4.26557 3.25021C3.89717 3.06945 3.42691 2.90525 2.87218 2.71021L2.43685 3.94841ZM4.35803 9.16396C4.35803 10.4349 4.36995 11.3514 4.48987 12.0515C4.6179 12.7991 4.87353 13.3343 5.35148 13.8384L6.30394 12.9354C6.0238 12.6399 5.8727 12.3505 5.78353 11.83C5.68627 11.262 5.67053 10.4668 5.67053 9.16396H4.35803ZM10.2463 13.5302C9.00656 13.5302 8.14638 13.5286 7.4983 13.4368C6.87284 13.348 6.54241 13.1869 6.30394 12.9354L5.35148 13.8384C5.8711 14.3865 6.52981 14.6251 7.31402 14.7362C8.0756 14.8443 9.04564 14.8427 10.2463 14.8427V13.5302ZM5.01428 6.63521H15.6287V5.32271H5.01428V6.63521ZM18.1088 9.13889L17.6715 11.2605L18.957 11.5255L19.3942 9.40388L18.1088 9.13889ZM15.6287 6.63521C16.378 6.63521 17.0375 6.63608 17.5579 6.69426C17.8166 6.72317 18.0101 6.76333 18.1461 6.81112C18.2873 6.86075 18.3098 6.89882 18.2985 6.88405L19.3388 6.08376C19.1332 5.81652 18.8441 5.66522 18.5813 5.57284C18.3131 5.47861 18.0098 5.42409 17.7038 5.38989C17.095 5.32183 16.3537 5.32271 15.6287 5.32271V6.63521ZM19.3951 9.39986C19.5431 8.65792 19.6689 8.03542 19.6997 7.53679C19.7313 7.02386 19.6729 6.5181 19.3388 6.08376L18.2985 6.88405C18.3528 6.95465 18.4127 7.08178 18.3896 7.45593C18.3657 7.84438 18.2636 8.36314 18.108 9.14291L19.3951 9.39986ZM14.8863 14.8427C15.5528 14.8427 16.1121 14.8438 16.563 14.7886C17.0317 14.7313 17.4592 14.6059 17.8324 14.3018L17.0033 13.2843C16.8937 13.3736 16.7384 13.4449 16.4036 13.4859C16.0508 13.5291 15.5857 13.5302 14.8863 13.5302V14.8427ZM17.6715 11.2605C17.5303 11.9455 17.4353 12.4008 17.3218 12.7376C17.2141 13.0573 17.1128 13.1951 17.0033 13.2843L17.8324 14.3018C18.2056 13.9976 18.4147 13.6042 18.5656 13.1568C18.7107 12.7263 18.8224 12.1782 18.957 11.5255L17.6715 11.2605Z" fill="white"/>
<path d="M8.98828 8.49896L9.45046 11.2271" stroke="white" stroke-width="1.5" stroke-linecap="round"/>
<path d="M14.263 8.49896L13.8008 11.2271" stroke="white" stroke-width="1.5" stroke-linecap="round"/>
</svg>
