<svg width="20" height="13" viewBox="0 0 20 13" fill="none" xmlns="http://www.w3.org/2000/svg">
<path d="M19.2591 8.34937C19.2591 8.57038 19.1713 8.78234 19.015 8.93862C18.8588 9.0949 18.6468 9.1827 18.4258 9.1827H1.75911C1.5381 9.1827 1.32614 9.0949 1.16986 8.93862C1.01358 8.78234 0.925781 8.57038 0.925781 8.34937C0.925781 8.12835 1.01358 7.91639 1.16986 7.76011C1.32614 7.60383 1.5381 7.51603 1.75911 7.51603H18.4258C18.6468 7.51603 18.8588 7.60383 19.015 7.76011C19.1713 7.91639 19.2591 8.12835 19.2591 8.34937ZM15.0924 12.516C15.3135 12.516 15.5254 12.4282 15.6817 12.272C15.838 12.1157 15.9258 11.9037 15.9258 11.6827C15.9258 11.4617 15.838 11.2497 15.6817 11.0934C15.5254 10.9372 15.3135 10.8494 15.0924 10.8494H5.09245C4.87143 10.8494 4.65947 10.9372 4.50319 11.0934C4.34691 11.2497 4.25911 11.4617 4.25911 11.6827C4.25911 11.9037 4.34691 12.1157 4.50319 12.272C4.65947 12.4282 4.87143 12.516 5.09245 12.516H15.0924ZM5.92578 5.01603C5.92578 5.23705 6.01358 5.44901 6.16986 5.60529C6.32614 5.76157 6.5381 5.84937 6.75911 5.84937C6.98013 5.84937 7.19209 5.76157 7.34837 5.60529C7.50465 5.44901 7.59245 5.23705 7.59245 5.01603C7.59245 4.35299 7.85584 3.71711 8.32468 3.24826C8.79352 2.77942 9.42941 2.51603 10.0924 2.51603C10.7555 2.51603 11.3914 2.77942 11.8602 3.24826C12.3291 3.71711 12.5924 4.35299 12.5924 5.01603C12.5924 5.23705 12.6802 5.44901 12.8365 5.60529C12.9928 5.76157 13.2048 5.84937 13.4258 5.84937C13.6468 5.84937 13.8588 5.76157 14.015 5.60529C14.1713 5.44901 14.2591 5.23705 14.2591 5.01603C14.2591 3.91096 13.8201 2.85116 13.0387 2.06975C12.2573 1.28835 11.1975 0.849365 10.0924 0.849365C8.98738 0.849365 7.92757 1.28835 7.14617 2.06975C6.36477 2.85116 5.92578 3.91096 5.92578 5.01603Z" fill="black"/>
</svg>
