<svg width="20" height="16" viewBox="0 0 20 16" fill="none" xmlns="http://www.w3.org/2000/svg">
<path d="M19.2923 11.016C19.2923 11.237 19.2045 11.449 19.0482 11.6053C18.892 11.7615 18.68 11.8493 18.459 11.8493H1.79232C1.5713 11.8493 1.35934 11.7615 1.20306 11.6053C1.04678 11.449 0.958984 11.237 0.958984 11.016C0.958984 10.795 1.04678 10.583 1.20306 10.4268C1.35934 10.2705 1.5713 10.1827 1.79232 10.1827H18.459C18.68 10.1827 18.892 10.2705 19.0482 10.4268C19.2045 10.583 19.2923 10.795 19.2923 11.016ZM15.1256 15.1827C15.3467 15.1827 15.5586 15.0949 15.7149 14.9386C15.8712 14.7823 15.959 14.5704 15.959 14.3493C15.959 14.1283 15.8712 13.9164 15.7149 13.7601C15.5586 13.6038 15.3467 13.516 15.1256 13.516H5.12565C4.90464 13.516 4.69268 13.6038 4.5364 13.7601C4.38011 13.9164 4.29232 14.1283 4.29232 14.3493C4.29232 14.5704 4.38011 14.7823 4.5364 14.9386C4.69268 15.0949 4.90464 15.1827 5.12565 15.1827H15.1256ZM5.95898 7.68268C5.95898 7.90369 6.04678 8.11565 6.20306 8.27193C6.35934 8.42821 6.5713 8.51601 6.79232 8.51601C7.01333 8.51601 7.22529 8.42821 7.38157 8.27193C7.53785 8.11565 7.62565 7.90369 7.62565 7.68268C7.62565 7.01964 7.88904 6.38375 8.35788 5.91491C8.82672 5.44607 9.46261 5.18268 10.1257 5.18268C10.7887 5.18268 11.4246 5.44607 11.8934 5.91491C12.3623 6.38375 12.6256 7.01964 12.6257 7.68268C12.6257 7.90369 12.7134 8.11565 12.8697 8.27193C13.026 8.42821 13.238 8.51601 13.459 8.51601C13.68 8.51601 13.892 8.42821 14.0482 8.27193C14.2045 8.11565 14.2923 7.90369 14.2923 7.68268C14.2923 6.57761 13.8533 5.5178 13.0719 4.7364C12.2905 3.955 11.2307 3.51601 10.1257 3.51601C9.02058 3.51601 7.96077 3.955 7.17937 4.7364C6.39797 5.5178 5.95898 6.57761 5.95898 7.68268ZM9.29232 1.84934C9.29232 2.07036 9.38011 2.28232 9.5364 2.4386C9.69267 2.59488 9.90464 2.68268 10.1257 2.68268C10.3467 2.68268 10.5586 2.59488 10.7149 2.4386C10.8712 2.28232 10.959 2.07036 10.959 1.84934V1.01601C10.959 0.794998 10.8712 0.583036 10.7149 0.426756C10.5586 0.270476 10.3467 0.182678 10.1257 0.182678C9.90464 0.182678 9.69267 0.270476 9.5364 0.426756C9.38011 0.583036 9.29232 0.794998 9.29232 1.01601V1.84934ZM15.1256 7.68268C15.1256 7.90369 15.2134 8.11565 15.3697 8.27193C15.526 8.42821 15.738 8.51601 15.959 8.51601H16.7923C17.0133 8.51601 17.2253 8.42821 17.3816 8.27193C17.5379 8.11565 17.6256 7.90369 17.6256 7.68268C17.6256 7.46166 17.5379 7.2497 17.3816 7.09342C17.2253 6.93714 17.0133 6.84934 16.7923 6.84934H15.959C15.738 6.84934 15.526 6.93714 15.3697 7.09342C15.2134 7.2497 15.1256 7.46166 15.1256 7.68268ZM3.45898 6.84934C3.23797 6.84934 3.02601 6.93714 2.86973 7.09342C2.71345 7.2497 2.62565 7.46166 2.62565 7.68268C2.62565 7.90369 2.71345 8.11565 2.86973 8.27193C3.02601 8.42821 3.23797 8.51601 3.45898 8.51601H4.29232C4.51333 8.51601 4.72529 8.42821 4.88157 8.27193C5.03785 8.11565 5.12565 7.90369 5.12565 7.68268C5.12565 7.46166 5.03785 7.2497 4.88157 7.09342C4.72529 6.93714 4.51333 6.84934 4.29232 6.84934H3.45898ZM4.82232 2.37934C4.66609 2.53562 4.57833 2.74754 4.57833 2.96851C4.57833 3.18948 4.66609 3.40141 4.82232 3.55768L5.41148 4.14684C5.56865 4.29864 5.77915 4.38264 5.99765 4.38074C6.21615 4.37884 6.42516 4.2912 6.57967 4.13669C6.73417 3.98219 6.82181 3.77318 6.82371 3.55468C6.82561 3.33618 6.74162 3.12568 6.58982 2.96851L6.00065 2.37934C5.84438 2.22312 5.63245 2.13536 5.41148 2.13536C5.19051 2.13536 4.97859 2.22312 4.82232 2.37934ZM14.2507 2.37934L13.6615 2.96851C13.5819 3.04538 13.5184 3.13734 13.4747 3.23901C13.4311 3.34068 13.4081 3.45003 13.4071 3.56068C13.4061 3.67133 13.4272 3.78106 13.4691 3.88347C13.511 3.98589 13.5729 4.07893 13.6512 4.15717C13.7294 4.23542 13.8224 4.2973 13.9249 4.3392C14.0273 4.3811 14.137 4.40218 14.2477 4.40122C14.3583 4.40026 14.4677 4.37727 14.5693 4.3336C14.671 4.28992 14.7629 4.22644 14.8398 4.14684L15.429 3.55768C15.5086 3.48081 15.5721 3.38885 15.6157 3.28718C15.6594 3.18551 15.6824 3.07616 15.6834 2.96551C15.6843 2.85486 15.6632 2.74513 15.6213 2.64272C15.5794 2.5403 15.5176 2.44726 15.4393 2.36902C15.3611 2.29077 15.268 2.22889 15.1656 2.18699C15.0632 2.14509 14.9535 2.12401 14.8428 2.12497C14.7322 2.12593 14.6228 2.14892 14.5211 2.19259C14.4195 2.23627 14.3275 2.29975 14.2507 2.37934Z" fill="#FF3333"/>
</svg>
